ModelForces
version=1
nRows=33
nColumns=21
inDegrees=no

This file contains the forces exerted on a model during a simulation.

A force is a generalized force, meaning that it can be either a force (N) or a torque (Nm).

Units are S.I. units (second, meters, Newtons, ...)
Angles are in degrees.

endheader
time	muscle1	muscle2	contactForce.block.force.X	contactForce.block.force.Y	contactForce.block.force.Z	contactForce.block.torque.X	contactForce.block.torque.Y	contactForce.block.torque.Z	contactForce.ground.force.X	contactForce.ground.force.Y	contactForce.ground.force.Z	contactForce.ground.torque.X	contactForce.ground.torque.Y	contactForce.ground.torque.Z	ground_prescribedForce_fx	ground_prescribedForce_fy	ground_prescribedForce_fz	ground_prescribedForce_px	ground_prescribedForce_py	ground_prescribedForce_pz
      3.32088713	    646.20474103	    529.30258574	    172.63738708	   1296.40882097	   -105.64968567	      7.43457242	     -1.21519886	    -25.78307630	   -172.63738708	  -1296.40882097	    105.64968567	     66.42154078	     -1.73532805	    110.26262053	   -488.50166649	      0.00000000	      0.00000000	      0.08302218	      0.00000000	      0.00000000
      3.32244616	    644.29565079	    528.53829030	    173.13672506	   1312.84516628	   -104.47233573	      7.36360465	     -1.11956522	    -26.10520923	   -173.13672506	  -1312.84516628	    104.47233573	     67.30807633	     -1.91955426	    111.66390681	   -488.73099964	      0.00000000	      0.00000000	      0.08306115	      0.00000000	      0.00000000
      3.32327547	    643.13960345	    528.01542766	    176.11213770	   1320.03666140	   -107.54090362	      7.51713361	     -1.21119782	    -26.10775852	   -176.11213770	  -1320.03666140	    107.54090362	     67.68892922	     -1.80234133	    112.27700226	   -488.85299040	      0.00000000	      0.00000000	      0.08308189	      0.00000000	      0.00000000
      3.32410477	    641.89165619	    527.40673028	    176.77194752	   1326.13798651	   -107.59925536	      7.52624399	     -1.19231282	    -26.20178764	   -176.77194752	  -1326.13798651	    107.59925536	     68.00613335	     -1.84990699	    112.79720279	   -488.97498116	      0.00000000	      0.00000000	      0.08310262	      0.00000000	      0.00000000
      3.32562108	    639.35833885	    526.07895254	    178.81815001	   1334.45648250	   -108.99909314	      7.62053339	     -1.21317651	    -26.27098932	   -178.81815001	  -1334.45648250	    108.99909314	     68.42075826	     -1.85096520	    113.50657134	   -489.19802959	      0.00000000	      0.00000000	      0.08314053	      0.00000000	      0.00000000
      3.32670920	    637.34221275	    524.95208601	    178.74964271	   1338.15184232	   -108.09380710	      7.60375023	     -1.16175581	    -26.34856832	   -178.74964271	  -1338.15184232	    108.09380710	     68.58601550	     -1.94967646	    113.82189206	   -489.35809208	      0.00000000	      0.00000000	      0.08316773	      0.00000000	      0.00000000
      3.32779733	    635.15452753	    523.68339362	    180.82232720	   1339.94223938	   -110.16654548	      7.74357097	     -1.22714475	    -26.27933387	   -180.82232720	  -1339.94223938	    110.16654548	     68.64070990	     -1.87064813	    113.97492115	   -489.51815457	      0.00000000	      0.00000000	      0.08319493	      0.00000000	      0.00000000
      3.32888545	    632.80446105	    522.26687910	    179.76174391	   1339.82517881	   -108.16729198	      7.68942704	     -1.14348670	    -26.32553033	   -179.76174391	  -1339.82517881	    108.16729198	     68.58491354	     -2.01470897	    113.96550193	   -489.67821706	      0.00000000	      0.00000000	      0.08322214	      0.00000000	      0.00000000
      3.32997357	    630.28238444	    520.71016880	    182.33131074	   1337.80730546	   -111.15365029	      7.89130963	     -1.25325948	    -26.15110342	   -182.33131074	  -1337.80730546	    111.15365029	     68.41925949	     -1.86524804	    113.79414462	   -489.83827956	      0.00000000	      0.00000000	      0.08324934	      0.00000000	      0.00000000
      3.33106169	    627.60470291	    519.00372338	    180.04506740	   1333.89372508	   -107.73796679	      7.78302095	     -1.12460206	    -26.17791431	   -180.04506740	  -1333.89372508	    107.73796679	     68.14427529	     -2.07399985	    113.46135240	   -489.99834205	      0.00000000	      0.00000000	      0.08327654	      0.00000000	      0.00000000
      3.33201506	    625.11972153	    517.39517938	    182.24360624	   1328.92004092	   -110.49922342	      7.98055433	     -1.23501061	    -25.95968362	   -182.24360624	  -1328.92004092	    110.49922342	     67.81447438	     -1.91872115	    113.03814198	   -490.13858188	      0.00000000	      0.00000000	      0.08330038	      0.00000000	      0.00000000
      3.33296842	    622.52001088	    515.67267572	    181.26047977	   1322.51255531	   -109.06582258	      7.97541721	     -1.18881293	    -25.86894974	   -181.26047977	  -1322.51255531	    109.06582258	     67.40236170	     -1.99853715	    112.49280358	   -490.27882171	      0.00000000	      0.00000000	      0.08332421	      0.00000000	      0.00000000
      3.33416030	    619.19756311	    513.36698785	    181.90546535	   1312.50951548	   -109.94766069	      8.10983319	     -1.23914845	    -25.61936391	   -181.90546535	  -1312.50951548	    109.94766069	     66.77305976	     -1.93317500	    111.64122852	   -490.45414632	      0.00000000	      0.00000000	      0.08335401	      0.00000000	      0.00000000
      3.33535217	    616.05485318	    510.88816571	    180.01085947	   1300.32152033	   -107.55735397	      8.09005809	     -1.16892703	    -25.44839151	   -180.01085947	  -1300.32152033	    107.55735397	     66.01898061	     -2.04672333	    110.60344652	   -490.62947092	      0.00000000	      0.00000000	      0.08338380	      0.00000000	      0.00000000
      3.33654405	    613.08114646	    508.24708278	    181.34332916	   1285.99024131	   -109.78723203	      8.30812212	     -1.28603723	    -25.06951287	   -181.34332916	  -1285.99024131	    109.78723203	     65.14285491	     -1.87363863	    109.38289081	   -490.80479553	      0.00000000	      0.00000000	      0.08341360	      0.00000000	      0.00000000
      3.33755992	    610.67885059	    505.86313261	    178.46834045	   1272.11396402	   -106.37650887	      8.23606677	     -1.18269211	    -24.90867549	   -178.46834045	  -1272.11396402	    106.37650887	     64.30171345	     -2.02878138	    108.20090868	   -490.95422954	      0.00000000	      0.00000000	      0.08343900	      0.00000000	      0.00000000
      3.33857579	    608.37353780	    503.36943634	    178.10288344	   1256.74452550	   -106.58613306	      8.34950566	     -1.22743445	    -24.58885198	   -178.10288344	  -1256.74452550	    106.58613306	     63.37593079	     -1.95713324	    106.89148170	   -491.10366354	      0.00000000	      0.00000000	      0.08346439	      0.00000000	      0.00000000
      3.33988375	    605.54283931	    499.99661006	    175.47142119	   1234.80959596	   -104.13901087	      8.36818521	     -1.18428088	    -24.23443412	   -175.47142119	  -1234.80959596	    104.13901087	     62.06251778	     -2.01087135	    105.02232375	   -491.29606403	      0.00000000	      0.00000000	      0.08349709	      0.00000000	      0.00000000
      3.34119171	    602.83834649	    496.45791272	    174.45137497	   1210.53499910	   -104.22428811	      8.52119231	     -1.25186470	    -23.74384839	   -174.45137497	  -1210.53499910	    104.22428811	     60.61701245	     -1.89196046	    102.95325961	   -491.48846452	      0.00000000	      0.00000000	      0.08352979	      0.00000000	      0.00000000
      3.34249966	    600.25412025	    492.75820468	    169.98654667	   1184.00552835	    -99.81090890	      8.45835072	     -1.14399997	    -23.36913892	   -169.98654667	  -1184.00552835	     99.81090890	     59.04444058	     -2.02909088	    100.69144128	   -491.68086501	      0.00000000	      0.00000000	      0.08356249	      0.00000000	      0.00000000
      3.34380762	    597.75690305	    488.92360996	    169.28318186	   1155.32061556	   -100.95652612	      8.67970816	     -1.27360084	    -22.75239290	   -169.28318186	  -1155.32061556	    100.95652612	     57.35068092	     -1.80463513	     98.24513393	   -491.87326550	      0.00000000	      0.00000000	      0.08359519	      0.00000000	      0.00000000
      3.34511558	    595.35867538	    484.95393049	    163.66770682	   1124.57709098	    -95.50310456	      8.57983464	     -1.13558308	    -22.32599840	   -163.66770682	  -1124.57709098	     95.50310456	     55.54133752	     -1.97182134	     95.62256202	   -492.06566599	      0.00000000	      0.00000000	      0.08362789	      0.00000000	      0.00000000
      3.34642354	    593.02523915	    480.89140716	    161.94719774	   1091.89011463	    -95.84488650	      8.77524187	     -1.24997793	    -21.65254848	   -161.94719774	  -1091.89011463	     95.84488650	     53.62313276	     -1.75667022	     92.83331540	   -492.25806648	      0.00000000	      0.00000000	      0.08366059	      0.00000000	      0.00000000
      3.34773150	    590.77376973	    476.90324742	    156.79283817	   1057.36999392	    -91.63138932	      8.75026885	     -1.17714857	    -21.09796440	   -156.79283817	  -1057.36999392	     91.63138932	     51.60237159	     -1.81106526	     89.88677353	   -492.45046697	      0.00000000	      0.00000000	      0.08369329	      0.00000000	      0.00000000
      3.34903946	    588.58493215	    473.08782914	    153.26696202	   1021.14202760	    -90.04978868	      8.86233997	     -1.22582801	    -20.41150028	   -153.26696202	  -1021.14202760	     90.04978868	     49.48631088	     -1.67801825	     86.79345501	   -492.64286746	      0.00000000	      0.00000000	      0.08372599	      0.00000000	      0.00000000
      3.35076227	    585.81359388	    468.31538830	    146.91713696	    971.02791274	    -86.02001862	      8.92134191	     -1.21543820	    -19.51728850	   -146.91713696	   -971.02791274	     86.02001862	     46.56577622	     -1.59923290	     82.51290755	   -492.89629293	      0.00000000	      0.00000000	      0.08376906	      0.00000000	      0.00000000
      3.35248509	    583.16293205	    463.83621291	    141.34487970	    918.47188691	    -83.69305364	      9.07355094	     -1.29533186	    -18.50284706	   -141.34487970	   -918.47188691	     83.69305364	     43.50998606	     -1.37332270	     78.02187891	   -493.14971840	      0.00000000	      0.00000000	      0.08381213	      0.00000000	      0.00000000
      3.35420790	    580.65566291	    459.63785580	    134.09509982	    863.78613490	    -79.53507455	      9.14155744	     -1.30349641	    -17.49523423	   -134.09509982	   -863.78613490	     79.53507455	     40.33696643	     -1.23493048	     73.34694074	   -493.40314388	      0.00000000	      0.00000000	      0.08385520	      0.00000000	      0.00000000
      3.35593072	    578.29206123	    455.72229334	    127.31114496	    807.29971680	    -76.69162034	      9.28067418	     -1.38679209	    -16.39315835	   -127.31114496	   -807.29971680	     76.69162034	     37.06580603	     -0.97048811	     68.51608660	   -493.65656935	      0.00000000	      0.00000000	      0.08389827	      0.00000000	      0.00000000
      3.35857375	    575.00094858	    450.23413266	    115.23511260	    718.50774980	    -71.18642102	      9.44940153	     -1.47673090	    -14.65832646	   -115.23511260	   -718.50774980	     71.18642102	     31.92751315	     -0.57816532	     60.89768665	   -494.04535866	      0.00000000	      0.00000000	      0.08396434	      0.00000000	      0.00000000
      3.36121678	    572.14262775	    445.36004065	    103.32273712	    633.19428681	    -67.56951430	      9.70503751	     -1.63215358	    -12.77720281	   -103.32273712	   -633.19428681	     67.56951430	     26.98558131	     -0.02081083	     53.39208028	   -494.43414798	      0.00000000	      0.00000000	      0.08403042	      0.00000000	      0.00000000
      3.36385981	    569.80990046	    441.04558133	     88.75323872	    546.92486764	    -63.02279239	      9.91088730	     -1.79989148	    -10.93779595	    -88.75323872	   -546.92486764	     63.02279239	     22.00251673	      0.63841191	     45.80099104	   -494.82293729	      0.00000000	      0.00000000	      0.08409650	      0.00000000	      0.00000000
      3.36650284	    568.06328758	    437.25279112	     75.02605559	    471.27145557	    -59.90600616	     10.17521575	     -1.89803752	     -8.97905875	    -75.02605559	   -471.27145557	     59.90600616	     17.59600998	      1.26530709	     38.78204266	   -495.21172660	      0.00000000	      0.00000000	      0.08416257	      0.00000000	      0.00000000
